<svg xmlns="http://www.w3.org/2000/svg" width="192" height="192" viewBox="0 0 192 192">
  <rect width="192" height="192" rx="24" fill="#07080a"/>
  <circle cx="96" cy="96" r="70" fill="none" stroke="#d4af37" stroke-width="1.5" opacity="0.4"/>
  <circle cx="96" cy="96" r="55" fill="none" stroke="#d4af37" stroke-width="1" opacity="0.25"/>
  <!-- 中央八芒星 -->
  <polygon points="96,30 102,80 140,56 108,88 162,96 108,104 140,136 102,112 96,162 90,112 52,136 84,104 30,96 84,88 52,56 90,80" fill="#d4af37" opacity="0.9"/>
  <circle cx="96" cy="96" r="18" fill="#07080a"/>
  <circle cx="96" cy="96" r="14" fill="none" stroke="#f9e596" stroke-width="1.5"/>
  <!-- 中央小星 -->
  <polygon points="96,84 98.5,92 107,92 100,97 102.5,105 96,100 89.5,105 92,97 85,92 93.5,92" fill="#f9e596"/>
  <!-- 四角小星裝飾 -->
  <circle cx="30" cy="30" r="2" fill="#d4af37" opacity="0.5"/>
  <circle cx="162" cy="30" r="2" fill="#d4af37" opacity="0.5"/>
  <circle cx="30" cy="162" r="2" fill="#d4af37" opacity="0.5"/>
  <circle cx="162" cy="162" r="2" fill="#d4af37" opacity="0.5"/>
  <circle cx="96" cy="20" r="1.5" fill="#f9e596" opacity="0.6"/>
  <circle cx="96" cy="172" r="1.5" fill="#f9e596" opacity="0.6"/>
  <circle cx="20" cy="96" r="1.5" fill="#f9e596" opacity="0.6"/>
  <circle cx="172" cy="96" r="1.5" fill="#f9e596" opacity="0.6"/>
</svg>
